<?xml version="1.0" encoding="UTF-8"?>
<!DOCTYPE svg PUBLIC "-//W3C//DTD SVG 1.1//EN" "http://www.w3.org/Graphics/SVG/1.1/DTD/svg11.dtd">
<!-- Creator: CorelDRAW X8 -->
<svg xmlns="http://www.w3.org/2000/svg" xml:space="preserve" width="53.352mm" height="62.232mm" version="1.1" style="shape-rendering:geometricPrecision; text-rendering:geometricPrecision; image-rendering:optimizeQuality; fill-rule:evenodd; clip-rule:evenodd"
viewBox="0 0 5335 6223"
 xmlns:xlink="http://www.w3.org/1999/xlink">
 <defs>
  <style type="text/css">
   <![CDATA[
    .fil0 {fill:black}
   ]]>
  </style>
 </defs>
 <g id="Слой_x0020_1">
  <metadata id="CorelCorpID_0Corel-Layer"/>
  <path class="fil0" d="M3414 3554c1114,0 1921,-699 1921,-1790 0,-1082 -807,-1764 -1921,-1764l-1912 0c-93,0 -168,75 -168,168l0 2833 -1166 0c-93,0 -168,75 -168,168l0 221c0,93 75,166 168,166l1166 0 0 806 -1166 0c-93,0 -168,76 -168,166l0 196c0,92 75,166 168,166l1166 0 0 1168c0,92 75,165 168,165l277 0c91,0 166,-73 166,-165l0 -1168 2334 0c92,0 168,-74 168,-166l0 -196c0,-90 -76,-166 -168,-166l-2334 0 0 -808 1469 0 0 0 0 0 0 0zm-1469 -3003l1454 0c824,0 1362,443 1362,1211 0,774 -540,1237 -1373,1237l-1443 0 0 -2448 0 0z"/>
 </g>
</svg>
